<svg width="23" height="23" viewBox="0 0 23 23" fill="none" xmlns="http://www.w3.org/2000/svg">
<path d="M20.1364 8.41964C20.0788 8.24983 19.9727 8.10061 19.8312 7.99043C19.6897 7.88024 19.519 7.81389 19.3403 7.79959L14.1111 7.38408L11.8483 2.37506C11.7762 2.21373 11.659 2.07671 11.5108 1.98052C11.3626 1.88434 11.1897 1.8331 11.013 1.83301C10.8363 1.83291 10.6634 1.88395 10.515 1.97998C10.3667 2.076 10.2493 2.2129 10.1771 2.37415L7.91428 7.38408L2.68513 7.79959C2.50944 7.8135 2.34148 7.87774 2.20134 7.98462C2.0612 8.0915 1.95482 8.23648 1.89493 8.40224C1.83503 8.56799 1.82416 8.74749 1.8636 8.91926C1.90305 9.09103 1.99115 9.2478 2.11736 9.37081L5.98167 13.1379L4.61499 19.0559C4.57349 19.235 4.58679 19.4225 4.65316 19.594C4.71954 19.7655 4.83592 19.913 4.9872 20.0175C5.13849 20.1221 5.3177 20.1787 5.50157 20.1801C5.68545 20.1815 5.8655 20.1276 6.01836 20.0254L11.0127 16.6958L16.007 20.0254C16.1633 20.1291 16.3475 20.1825 16.535 20.1784C16.7225 20.1743 16.9043 20.1129 17.0558 20.0024C17.2073 19.8919 17.3214 19.7377 17.3827 19.5604C17.4439 19.3832 17.4495 19.1914 17.3985 19.0109L15.7209 13.1406L19.8814 9.39649C20.1539 9.15067 20.2538 8.76727 20.1364 8.41964Z" fill="#F3CD03"/>
</svg>
