<svg width="22" height="23" viewBox="0 0 22 23" fill="none" xmlns="http://www.w3.org/2000/svg">
<path d="M20.1228 8.41964C20.0651 8.24983 19.959 8.10061 19.8175 7.99043C19.676 7.88024 19.5054 7.81389 19.3266 7.79959L14.0974 7.38408L11.8346 2.37506C11.7626 2.21373 11.6453 2.07671 11.4971 1.98052C11.3489 1.88434 11.176 1.8331 10.9993 1.83301C10.8226 1.83291 10.6497 1.88395 10.5014 1.97998C10.353 2.076 10.2357 2.2129 10.1634 2.37415L7.90061 7.38408L2.67146 7.79959C2.49577 7.8135 2.3278 7.87774 2.18767 7.98462C2.04753 8.0915 1.94115 8.23648 1.88125 8.40224C1.82136 8.56799 1.81048 8.74749 1.84993 8.91926C1.88938 9.09103 1.97748 9.2478 2.10369 9.37081L5.968 13.1379L4.60132 19.0559C4.55982 19.235 4.57312 19.4225 4.63949 19.594C4.70587 19.7655 4.82225 19.913 4.97353 20.0175C5.12482 20.1221 5.30403 20.1787 5.4879 20.1801C5.67177 20.1815 5.85182 20.1276 6.00469 20.0254L10.999 16.6958L15.9934 20.0254C16.1496 20.1291 16.3339 20.1825 16.5214 20.1784C16.7088 20.1743 16.8906 20.1129 17.0421 20.0024C17.1937 19.8919 17.3077 19.7377 17.369 19.5604C17.4303 19.3832 17.4358 19.1914 17.3848 19.0109L15.7072 13.1406L19.8678 9.39649C20.1402 9.15067 20.2402 8.76727 20.1228 8.41964Z" fill="#F3CD03"/>
</svg>
