<svg width="23" height="23" viewBox="0 0 23 23" fill="none" xmlns="http://www.w3.org/2000/svg">
<path d="M21.1115 8.41964C21.0539 8.24983 20.9478 8.10061 20.8063 7.99043C20.6648 7.88024 20.4941 7.81389 20.3154 7.79959L15.0862 7.38408L12.8234 2.37506C12.7513 2.21373 12.6341 2.07671 12.4859 1.98052C12.3377 1.88434 12.1648 1.8331 11.9881 1.83301C11.8114 1.83291 11.6385 1.88395 11.4901 1.97998C11.3418 2.076 11.2244 2.2129 11.1522 2.37415L8.88938 7.38408L3.66023 7.79959C3.48454 7.8135 3.31657 7.87774 3.17644 7.98462C3.0363 8.0915 2.92992 8.23648 2.87002 8.40224C2.81013 8.56799 2.79925 8.74749 2.8387 8.91926C2.87815 9.09103 2.96625 9.2478 3.09246 9.37081L6.95677 13.1379L5.59009 19.0559C5.54859 19.235 5.56189 19.4225 5.62826 19.594C5.69463 19.7655 5.81102 19.913 5.9623 20.0175C6.11359 20.1221 6.2928 20.1787 6.47667 20.1801C6.66054 20.1815 6.84059 20.1276 6.99345 20.0254L11.9878 16.6958L16.9821 20.0254C17.1384 20.1291 17.3226 20.1825 17.5101 20.1784C17.6976 20.1743 17.8794 20.1129 18.0309 20.0024C18.1824 19.8919 18.2965 19.7377 18.3578 19.5604C18.419 19.3832 18.4246 19.1914 18.3736 19.0109L16.696 13.1406L20.8565 9.39649C21.129 9.15067 21.2289 8.76727 21.1115 8.41964Z" fill="#F3CD03"/>
</svg>
