<svg width="23" height="23" viewBox="0 0 23 23" fill="none" xmlns="http://www.w3.org/2000/svg">
<path d="M21.0966 8.41964C21.039 8.24983 20.9329 8.10061 20.7914 7.99043C20.6499 7.88024 20.4792 7.81389 20.3005 7.79959L15.0713 7.38408L12.8085 2.37506C12.7364 2.21373 12.6192 2.07671 12.471 1.98052C12.3228 1.88434 12.1499 1.8331 11.9732 1.83301C11.7965 1.83291 11.6236 1.88395 11.4752 1.97998C11.3269 2.076 11.2095 2.2129 11.1373 2.37415L8.87449 7.38408L3.64533 7.79959C3.46964 7.8135 3.30168 7.87774 3.16154 7.98462C3.02141 8.0915 2.91503 8.23648 2.85513 8.40224C2.79524 8.56799 2.78436 8.74749 2.82381 8.91926C2.86326 9.09103 2.95136 9.2478 3.07757 9.37081L6.94187 13.1379L5.57519 19.0559C5.5337 19.235 5.547 19.4225 5.61337 19.594C5.67974 19.7655 5.79612 19.913 5.94741 20.0175C6.0987 20.1221 6.2779 20.1787 6.46178 20.1801C6.64565 20.1815 6.8257 20.1276 6.97856 20.0254L11.9729 16.6958L16.9672 20.0254C17.1235 20.1291 17.3077 20.1825 17.4952 20.1784C17.6827 20.1743 17.8645 20.1129 18.016 20.0024C18.1675 19.8919 18.2816 19.7377 18.3429 19.5604C18.4041 19.3832 18.4097 19.1914 18.3587 19.0109L16.6811 13.1406L20.8416 9.39649C21.1141 9.15067 21.214 8.76727 21.0966 8.41964Z" fill="#F3CD03"/>
</svg>
