<svg width="23" height="23" viewBox="0 0 23 23" fill="none" xmlns="http://www.w3.org/2000/svg">
<path d="M5.99748 13.1374L4.6308 19.0554C4.58848 19.2346 4.60118 19.4224 4.66725 19.5943C4.73332 19.7662 4.84969 19.9141 5.00115 20.0188C5.15261 20.1235 5.33213 20.1801 5.51625 20.1812C5.70038 20.1823 5.88056 20.1278 6.03325 20.0249L11.0276 16.6954L16.0219 20.0249C16.1782 20.1287 16.3624 20.1821 16.5499 20.178C16.7374 20.1739 16.9191 20.1124 17.0707 20.0019C17.2222 19.8915 17.3363 19.7372 17.3976 19.56C17.4588 19.3827 17.4643 19.191 17.4134 19.0105L15.7358 13.1402L19.8963 9.39603C20.0296 9.27605 20.1247 9.11963 20.17 8.94614C20.2153 8.77264 20.2088 8.58967 20.1512 8.41986C20.0936 8.25004 19.9875 8.10083 19.8461 7.99067C19.7046 7.88051 19.5339 7.81423 19.3552 7.80004L14.126 7.38362L11.8632 2.3746C11.791 2.21331 11.6737 2.07635 11.5255 1.98025C11.3772 1.88415 11.2043 1.83301 11.0276 1.83301C10.8509 1.83301 10.678 1.88415 10.5297 1.98025C10.3814 2.07635 10.2641 2.21331 10.192 2.3746L7.92917 7.38362L2.70002 7.79913C2.52433 7.81305 2.35637 7.87729 2.21623 7.98416C2.07609 8.09104 1.96971 8.23602 1.90982 8.40178C1.84992 8.56753 1.83905 8.74703 1.8785 8.9188C1.91794 9.09057 2.00604 9.24734 2.13225 9.37035L5.99748 13.1374ZM8.61435 9.16947C8.77807 9.15658 8.9353 9.09987 9.06957 9.0053C9.20384 8.91073 9.31019 8.78179 9.37749 8.63198L11.0276 4.98047L12.6777 8.63198C12.745 8.78179 12.8513 8.91073 12.9856 9.0053C13.1199 9.09987 13.2771 9.15658 13.4408 9.16947L17.0841 9.4584L14.0838 12.1587C13.8233 12.3936 13.7197 12.7549 13.8151 13.0925L14.9644 17.1146L11.5376 14.8297C11.3872 14.7288 11.2101 14.6749 11.029 14.6749C10.8478 14.6749 10.6708 14.7288 10.5204 14.8297L6.93948 17.2173L7.90257 13.0475C7.93789 12.8942 7.93315 12.7343 7.88881 12.5833C7.84448 12.4323 7.76203 12.2953 7.64942 12.1853L4.86286 9.46849L8.61435 9.16947Z" fill="#F3CD03"/>
</svg>
